PathFileType	4	(X/Y/Z)	RBDS011\RBDS011runT25.trc
DataRate	CameraRate	NumFrames	NumMarkers	Units	OrigDataRate	OrigDataStartFrame	OrigNumFrames
150.000000	150.000000	5	33	mm	150.000000	562	4500
Frame#	Time	L.ASIS			L.Heel.Bottom			L.Heel.Lateral			L.Heel.Top			L.Iliac.Crest			L.MT1			L.MT5			L.PSIS			L.Shank.Bottom.Lateral			L.Shank.Bottom.Medial			L.Shank.Top.Lateral			L.Shank.Top.Medial			L.Thigh.Bottom.Lateral			L.Thigh.Bottom.Medial			L.Thigh.Top.Lateral			L.Thigh.Top.Medial			R.ASIS			R.ASY			R.Heel.Bottom			R.Heel.Lateral			R.Heel.Top			R.Iliac.Crest			R.MT1			R.MT5			R.PSIS			R.Shank.Bottom.Lateral			R.Shank.Bottom.Medial			R.Shank.Top.Lateral			R.Shank.Top.Medial			R.Thigh.Bottom.Lateral			R.Thigh.Bottom.Medial			R.Thigh.Top.Lateral			R.Thigh.Top.Medial			
		X1	Y1	Z1	X2	Y2	Z2	X3	Y3	Z3	X4	Y4	Z4	X5	Y5	Z5	X6	Y6	Z6	X7	Y7	Z7	X8	Y8	Z8	X9	Y9	Z9	X10	Y10	Z10	X11	Y11	Z11	X12	Y12	Z12	X13	Y13	Z13	X14	Y14	Z14	X15	Y15	Z15	X16	Y16	Z16	X17	Y17	Z17	X18	Y18	Z18	X19	Y19	Z19	X20	Y20	Z20	X21	Y21	Z21	X22	Y22	Z22	X23	Y23	Z23	X24	Y24	Z24	X25	Y25	Z25	X26	Y26	Z26	X27	Y27	Z27	X28	Y28	Z28	X29	Y29	Z29	X30	Y30	Z30	X31	Y31	Z31	X32	Y32	Z32	X33	Y33	Z33	

563	3.746666666666667	2170.320381028107	1002.152408140895	928.0744807302785	1646.811466440016	142.8641926718827	1031.746223622005	1674.827148498433	140.2583089639485	992.0751712575932	1677.911306510821	180.0951137294647	1030.403357806382	2126.67949970228	1079.596589485974	901.7613137145296	1843.016243295211	46.05965705977344	1076.609221940909	1814.788904973585	49.45808587745443	961.6460993450555	2016.203540474532	1057.764099266636	1016.078104790908	1772.997531538291	240.0086320935437	969.3662893289764	1743.32274793639	262.8682231634023	1010.293494201085	1804.104633636756	312.3787307181701	953.0429367661401	1776.376108567531	334.7357631384334	993.5129912128679	1988.333708834079	637.6533824351877	912.0634725296352	1932.557172749827	652.5594326637203	956.6944790646171	2000.736447051996	746.6245706164186	897.8195002649396	1951.894892296314	760.387060109485	944.2219011700233	2189.653569138332	1015.774393575309	1174.152916384609	2261.91770830214	133.9474966715555	1143.885730632697	2075.511475225437	106.2271852893813	1107.991449543024	2096.338632032222	120.9334553771171	1153.122060987207	2094.520298040489	153.2420943147519	1110.619096859006	2140.963880989126	1076.375415535231	1217.034687137355	2301.722814593547	74.06209662682654	1101.350942219311	2256.798734330843	73.23031671611443	1210.082834714704	2019.657918967068	1062.617168451799	1117.466384307506	2157.891641937416	230.6029587683786	1170.887604262349	2134.223555919105	246.5934671178085	1128.089629429042	2177.753720040839	311.328066117685	1188.471217948611	2150.030473269707	324.1245863311741	1144.605640724626	2253.701844963921	662.7011671955696	1226.377817282716	2198.173195158182	634.0356946789685	1188.316216880034	2195.242820320606	753.8155876055682	1240.340482205062	2141.059324033533	727.0933822272218	1206.639882703563	
564	3.753333333333333	2171.775868567601	1004.616745154481	929.3065058815299	1637.425654439859	153.5607350705209	1031.422088180512	1665.35512224764	149.5807678999508	991.7156537770543	1670.200044949926	189.3418009599084	1030.05421786077	2130.557331321624	1084.777997425652	902.3973120638279	1829.268164300039	47.68130943520861	1076.295197739746	1801.19517175975	51.9580539204856	961.3683268983458	2017.810625195253	1062.351974656906	1015.473524126805	1763.840978220145	246.6669412472558	968.9559053646061	1734.700952040696	268.9719684543646	1010.530815277753	1794.726942039921	319.3424905143065	953.1972998381264	1767.405496898152	341.1686202432477	994.2087786954253	1982.309197868191	643.4765489233697	912.6873649383431	1926.952058065937	659.7132705864844	957.407776516888	1997.136877089891	752.1309495993698	898.4043483964761	1948.938167100516	766.9756993901366	945.0669884378813	2190.320163217872	1020.553597865635	1174.609256197137	2285.696765441767	134.5492380181252	1142.302785777387	2101.370613654367	94.99247506710297	1107.681995330767	2121.545165443394	111.0260521875358	1152.698018598958	2117.304673657684	143.1041202076844	1110.343327981149	2140.897547933565	1082.326481411592	1217.099723673969	2328.853781173415	77.45151746884468	1099.34774300159	2285.065345693979	73.75246819497549	1208.332395891988	2020.733916723904	1067.756507982387	1116.97439051234	2175.994927132849	224.6643703511687	1170.588673914751	2151.06682146865	239.3491931047703	1128.006762781579	2190.840054740233	306.3530892634367	1188.62332915947	2162.105988491771	317.5838442392239	1144.995760523144	2250.674150389155	665.3613956840946	1225.86299763756	2194.552675659303	637.1663937912371	1188.329558358864	2193.451256963939	757.2483168163673	1239.781337091664	2138.773874187812	730.9746396710588	1206.578402860823	
565	3.76	2173.215459197802	1006.899277692561	930.4607099636053	1628.599006113858	164.5105243121848	1031.049276252157	1656.374480642171	159.1894361728036	991.3180812419146	1663.016367906092	198.7553289220255	1029.674000780761	2134.339715540876	1089.593240949879	903.0890193122676	1815.748603231777	49.70086508435742	1075.899207528516	1787.826331159277	54.88828143316196	961.091232178954	2019.402929938538	1066.579450378827	1014.834621224398	1755.355950181447	253.2425410594256	968.5699548040678	1726.672946405515	275.0738169245789	1010.68178317726	1786.115816344565	326.15353737078	953.3066802583984	1759.146971277105	347.5444946311387	994.7697422237586	1977.030516185733	648.971765759271	913.3629798082313	1922.077884819115	666.4405516970912	958.1518947789963	1994.063760251259	757.2697056501569	898.9424135812426	1946.479618058135	773.1384865031821	945.8357579066162	2190.977520600271	1024.823535575987	1174.976003774897	2308.632286929512	136.238398413929	1140.400282724954	2127.017480676455	85.21577546361124	1107.80160502239	2146.737986160315	102.3672285960834	1152.636012301871	2139.868481091366	134.1917050033924	1110.619640566731	2140.85863937068	1087.912798792782	1217.0895152677	2354.627700212469	82.34448305091971	1096.520650077041	2312.833090585568	75.41951552493589	1205.911533229856	2021.803743196371	1072.485971102006	1116.374751278038	2193.843288234394	219.5499387105151	1170.61662909206	2167.618689100234	232.942917150895	1128.358453964184	2203.768255779528	301.8563166219757	1189.144017472978	2173.980450398025	311.5585903372861	1145.877201475079	2247.342769619568	667.3506638465298	1225.694630624139	2190.695559500496	639.7380905488478	1188.522208566083	2191.434451249682	760.0611808220492	1239.502158610149	2136.309227646155	734.3245249755398	1206.670329058685	
566	3.766666666666667	2174.606045572967	1009.014223779845	931.4904560370902	1620.280124175779	175.6981529821352	1030.685519124246	1647.810689352478	169.0649856820499	990.9324451419625	1656.296656000031	208.3141246775251	1029.288987064691	2137.934230375685	1093.960899901858	903.8076264992567	1802.374883821679	52.14312648298797	1075.43682045011	1774.569198449145	58.25970571741145	960.8423738745634	2020.951888004231	1070.413553497976	1014.192594220486	1747.48280526507	259.7177627628824	968.2183302470285	1719.18446260757	281.1795494430315	1010.754800687756	1778.267454167854	332.7689398364839	953.3834242590394	1751.595798013773	353.8423114802694	995.1995795245576	1972.554932771834	654.0409629808286	914.0892212087691	1917.982377346951	672.6363265591665	958.9267148972631	1991.553731480569	761.9640405883479	899.4290001973977	1944.527575140154	778.7961337985051	946.5064561985173	2191.619363078169	1028.517847555111	1175.24107053716	2330.463188099953	138.9346700571446	1138.249694425186	2152.110941359556	76.91427462162989	1108.351876282758	2171.593138106204	94.98800996730414	1152.941370755512	2161.912764408042	126.5280677933774	1111.462335251727	2140.922763719198	1093.043563675714	1217.012364066082	2378.745473268816	88.59004662198296	1092.965088018208	2339.789232706732	78.16053617724377	1202.883633503487	2022.845914327403	1076.755962793565	1115.71428959363	2211.188197397601	215.2958045010047	1170.963253673285	2183.667132902314	227.4011884877961	1129.114837143901	2216.350491344067	297.9044975624225	1189.994724806044	2185.49761796274	306.1064106748564	1147.180935323463	2243.85132603395	668.7064681691539	1225.908098550949	2186.76947454668	641.7804822378303	1188.901689763691	2189.284806847336	762.2542727206894	1239.575575684116	2133.78552126453	737.1411840623214	1206.947178898165	
567	3.773333333333333	2175.920191860508	1010.969471940695	932.3647941592798	1612.419572046306	187.1164797808841	1030.396666969363	1639.589629177841	179.1917373165952	990.6161292334065	1649.982838737272	218.0013677433154	1028.932582778217	2141.256571401285	1097.820014659979	904.5212550425148	1789.060926606516	55.021740525258	1074.931830442763	1761.299207486656	62.07524242304009	960.6508495016286	2022.427683986568	1073.827856551274	1013.58176313944	1740.152133360862	266.0892985039505	967.9064444703986	1712.186226759289	287.3021368765222	1010.767308591061	1771.168903641393	339.159509261041	953.442676587631	1744.751321154152	360.0473224336166	995.5164291009769	1968.946057754694	658.5813160322269	914.8521912930967	1914.7127901048	678.1876726712321	959.7111321242839	1989.647162580096	766.1341762557601	899.8559527465956	1943.091021056247	783.8589580163093	947.0509028151056	2192.236758701488	1031.59117964693	1175.404348835501	2350.92795830725	142.4998125097651	1135.949188092689	2176.28965199268	70.05170203969766	1109.309113116247	2195.743571163121	88.87787888829271	1153.597021293833	2183.121934692204	120.0908058300573	1112.843439007115	2141.144072330204	1097.622915571479	1216.88701776163	2400.939148229813	95.94821335238643	1088.850370610804	2365.577406951323	81.85463816498235	1199.375366881299	2023.837013731107	1080.521992962573	1115.047352560867	2227.767418847392	211.9007818827502	1171.598968792291	2198.994424077155	222.7170798986979	1130.217889815918	2228.38537973707	294.5381260407996	1191.112806490612	2196.497007738255	301.2623791646705	1148.806446403217	2240.33588341163	669.4836175507064	1226.506111926922	2182.928171419039	643.3347130500541	1189.455409490152	2187.087564082709	763.8469923109775	1240.040892426211	2131.311849227335	739.4373111599164	1207.417603822694	
